# xmcd
#
# Track frame offsets:
#	150
#	21732
#	43089
#	67314
#	89172
#	109103
#	128879
#	159866
#	174781
#	200511
#
# Disc length: 3525 seconds
# Revision: 0
# Processed by: cddbd v1.5.2PL0 Copyright (c) Steve Scherf et al.
# Submitted via: dBpowerAMP V12.0
#
DISCID=8f0dc30a
DTITLE=Bobby Messano with Deanna Bogart - Welcome To Deltaville
DYEAR=2013
DGENRE=Blues
TTITLE0=All Your Love
TTITLE1=The Invisible Man
TTITLE2=Welcome To Deltaville
TTITLE3=That's The Way Of The World
TTITLE4=My Crazy Dreams
TTITLE5=I Ain't Got Diddly
TTITLE6=The Way You Do The Things You Do
TTITLE7=Lonely Town
TTITLE8=Sleepwalk
TTITLE9=The Low Spark Of High Heeled Boys
EXTD=
EXTT0=
EXTT1=
EXTT2=
EXTT3=
EXTT4=
EXTT5=
EXTT6=
EXTT7=
EXTT8=
EXTT9=
PLAYORDER=
